<svg width="48" height="48" viewBox="0 0 48 48" fill="none" xmlns="http://www.w3.org/2000/svg">
<rect width="48" height="48" rx="16" fill="black"/>
<path d="M33.801 22C34.2577 24.2413 33.9322 26.5714 32.8789 28.6018C31.8255 30.6322 30.1079 32.24 28.0125 33.1573C25.9171 34.0746 23.5706 34.2458 21.3643 33.6424C19.158 33.0389 17.2252 31.6974 15.8883 29.8414C14.5514 27.9854 13.8911 25.7272 14.0177 23.4434C14.1442 21.1595 15.0499 18.9881 16.5837 17.2912C18.1174 15.5942 20.1866 14.4744 22.4461 14.1184C24.7056 13.7625 27.0188 14.1918 29 15.335" stroke="#CCCCCC" stroke-width="2" stroke-linecap="round" stroke-linejoin="round"/>
<path d="M21 23L24 26L34 16" stroke="#CCCCCC" stroke-width="2" stroke-linecap="round" stroke-linejoin="round"/>
</svg>
