<svg width="48" height="48" viewBox="0 0 48 48" fill="none" xmlns="http://www.w3.org/2000/svg">
<rect width="48" height="48" rx="16" fill="#333333"/>
<path d="M14.062 24.3481C13.9787 24.1236 13.9787 23.8766 14.062 23.6521C14.8737 21.684 16.2515 20.0012 18.0208 18.817C19.79 17.6329 21.871 17.0007 24 17.0007C26.129 17.0007 28.21 17.6329 29.9792 18.817C31.7485 20.0012 33.1263 21.684 33.938 23.6521C34.0213 23.8766 34.0213 24.1236 33.938 24.3481C33.1263 26.3163 31.7485 27.9991 29.9792 29.1832C28.21 30.3674 26.129 30.9995 24 30.9995C21.871 30.9995 19.79 30.3674 18.0208 29.1832C16.2515 27.9991 14.8737 26.3163 14.062 24.3481Z" stroke="#E5E5E5" stroke-width="2" stroke-linecap="round" stroke-linejoin="round"/>
<path d="M24 27C25.6569 27 27 25.6569 27 24C27 22.3431 25.6569 21 24 21C22.3431 21 21 22.3431 21 24C21 25.6569 22.3431 27 24 27Z" stroke="#E5E5E5" stroke-width="2" stroke-linecap="round" stroke-linejoin="round"/>
</svg>
